<?xml version="1.0" encoding="utf-8"?>
<!-- Generator: Adobe Illustrator 27.5.0, SVG Export Plug-In . SVG Version: 6.00 Build 0)  -->
<svg version="1.1" xmlns="http://www.w3.org/2000/svg" xmlns:xlink="http://www.w3.org/1999/xlink" x="0px" y="0px"
	 viewBox="0 0 1122 1122" style="enable-background:new 0 0 1122 1122;" xml:space="preserve">
<!-- <g id="Bg">
	<rect style="fill:#FFFFFF;" width="1122" height="1122"/>
</g> -->
<g id="Bg">
	<circle style="fill:#62f571;" cx="561" cy="561" r="500"/>
</g>
<g id="Object">
	<g>
		<path style="fill:#AAD4C8;" d="M851.135,615.828l0.182-0.514c-42.798,0-68.981-26.088-100.463-48.06
			c-22.865-15.962-48.503-29.751-85.393-29.751c-16.578,0-30.649,0.131-42.596,0.498H586.97c12.331,0.431,22.22,10.502,22.22,22.948
			c0,12.729-10.324,23.05-23.05,23.05h-51.11c0.265,0.016,0.529,0.083,0.814,0.083h49.301h32.41
			c16.476,2.691,29.072,16.962,29.072,34.201c0,13.077-7.301,24.311-17.989,30.221c-2.588,0.68-15.085,3.998-31.778,8.428
			c-10.735,2.588-20.956,5.326-30.517,8.083l-2.074,0.546c-35.876,9.494-74.508,19.664-81.51,21.308
			c-4.646,0.249-8.878,0.032-12.612-0.881l-128.688-83.434l-23.315-16.859v0.048c-1.111-0.746-2.292-1.375-3.501-1.991
			c-1.711-0.862-3.485-1.644-5.362-2.205c-1.477-0.45-3.003-0.766-4.547-0.996c-1.659-0.249-3.334-0.434-5.042-0.434
			c-2.308,0-4.547,0.233-6.705,0.683C273.97,582.439,259,598.222,259,617.654c0,10.272,4.266,19.463,11.051,26.152l-0.032,0.032
			l0.182,0.134c2.706,2.639,5.741,4.912,9.126,6.638l8.862,6.44l201.719,146.227l0.016-0.016c0.814,0.316,1.643,0.629,2.473,0.96
			c4.548,1.577,9.344,2.608,14.405,2.608c2.971,0,5.856-0.316,8.661-0.881l0.995-0.249c68.337-17.408,209.554-53.283,275.647-69.578
			c1.628-0.616,3.153-1.161,4.765-1.761c16.859-4.248,39.858-9.273,54.264-9.273v-9.644l0.182-0.016l-0.182-13.259v-83.434V615.828z
			"/>
		<path style="fill:#616E7D;" d="M493.362,473.497c2.588-0.695,15.085-4.014,31.762-8.428c10.751-2.588,20.957-5.327,30.534-8.083
			l2.055-0.546c35.879-9.494,74.508-19.664,81.529-21.308c4.63-0.249,8.878-0.051,12.612,0.881l128.689,83.418l23.299,16.859
			l0.016-0.031c1.094,0.746,2.292,1.375,3.485,1.975c1.726,0.878,3.5,1.659,5.377,2.221c1.459,0.45,3.003,0.765,4.547,0.995
			c1.64,0.249,3.319,0.415,5.042,0.415c2.291,0,4.532-0.23,6.705-0.68c19-1.644,33.986-17.408,33.986-36.84
			c0-10.288-4.283-19.482-11.051-26.168l0.016-0.035l-0.166-0.131c-2.706-2.623-5.741-4.896-9.127-6.622l-8.862-6.456
			L632.09,318.708l-0.016,0.031c-0.83-0.316-1.659-0.629-2.489-0.96c-4.531-1.576-9.328-2.608-14.405-2.608
			c-2.955,0-5.84,0.316-8.645,0.865l-1.012,0.265c-68.337,17.389-209.554,53.283-275.631,69.578c-1.628,0.6-3.172,1.161-4.765,1.761
			c-16.859,4.232-39.859,9.258-54.264,9.258v9.66l-0.182,0.016l0.182,13.259v83.418v2.919l-0.182,0.514
			c42.781,0,68.981,26.088,100.463,48.059c22.865,15.946,48.487,29.751,85.393,29.751c16.578,0,30.648-0.15,42.596-0.498h35.895
			h51.11c12.726,0,23.05-10.32,23.05-23.05c0-12.446-9.89-22.517-22.22-22.948c-0.281-0.016-0.549-0.083-0.829-0.083h-49.286
			h-32.409c-16.476-2.706-29.072-16.961-29.072-34.2C475.373,490.64,482.675,479.388,493.362,473.497z"/>
	</g>
</g>
</svg>
