<?xml version="1.0" encoding="utf-8"?>
<!-- Generator: Adobe Illustrator 27.5.0, SVG Export Plug-In . SVG Version: 6.00 Build 0)  -->
<svg version="1.1" xmlns="http://www.w3.org/2000/svg" xmlns:xlink="http://www.w3.org/1999/xlink" x="0px" y="0px"
	 viewBox="0 0 1122 1122" style="enable-background:new 0 0 1122 1122;" xml:space="preserve">
<g id="Bg">
	<rect style="fill:#FFFFFF;" width="1122" height="1122"/>
</g>
<g id="Object">
	<g>
		<path style="fill:#AAD4C8;" d="M561.932,597.15c5.023,0,9.103-4.079,9.103-9.069v-60.744l82.005-62.007
			c3.523-3.544,3.523-9.305,0-12.87c-3.559-3.555-9.32-3.555-12.879,0l-78.059,57.492l-78.06-57.492
			c-3.541-3.555-9.308-3.555-12.849,0c-3.552,3.565-3.552,9.326,0,12.87l81.636,61.737v61.014
			C552.83,593.071,556.909,597.15,561.932,597.15z"/>
		<path style="fill:#616E7D;" d="M489.918,729.436c0,14.071-7.655,26.018-18.307,30.421c-0.895,0.384-0.629,1.722,0.351,1.722
			h86.169c1.319,0.079,2.657,0.115,3.97,0.115c41.414,0,74.652-34.842,72.068-76.804c-2.239-35.931-31.495-65.208-67.444-67.423
			c-41.953-2.626-76.807,30.645-76.807,72.037l0.037,1.38h-0.037V729.436z"/>
		<path style="fill:#616E7D;" d="M520.318,768.515c-37.486,0-67.862,30.378-67.862,67.862v32.929h219.297v-32.929
			c0-37.484-30.393-67.862-67.856-67.862H520.318z M579.991,798.339l-17.805,52.853l-0.496,0.024l-17.46-52.611L579.991,798.339z
			 M580.318,811.242l13.811,13.339l-32.028,34.73l-32.015-34.73l13.835-13.339c0,0-20.559-18.628-21.472-20.235
			c-1.647-2.896,12.649-12.501,12.649-12.501l27.004,80.804l27.016-80.804c0,0,14.283,9.605,12.636,12.501
			C600.835,792.614,580.318,811.242,580.318,811.242z"/>
		<polygon style="fill:#AAD4C8;" points="562.187,851.192 579.991,798.339 544.23,798.605 561.69,851.216 		"/>
		<path style="fill:#FFFFFF;" d="M601.754,791.007c1.647-2.896-12.636-12.501-12.636-12.501l-27.016,80.804l32.028-34.73
			l-13.811-13.339C580.318,811.242,600.835,792.614,601.754,791.007z"/>
		<path style="fill:#FFFFFF;" d="M562.102,859.311l-27.004-80.804c0,0-14.295,9.605-12.649,12.501
			c0.913,1.606,21.472,20.235,21.472,20.235l-13.835,13.339L562.102,859.311z"/>
		<path style="fill:#616E7D;" d="M750.538,403.878c-37.474,0-67.855,30.397-67.855,67.862v32.929h219.29V471.74
			c0-37.465-30.382-67.862-67.844-67.862H750.538z M819.229,493.031h-10.028l-8.382-54.965h-0.291l8.207-15.088h-32.845
			l8.237,15.088h-0.315l-8.34,54.965h-10.059l-15.535-81.745c1.507-0.115,3.062-0.23,4.593-0.23h75.693
			c1.567,0,3.099,0.115,4.605,0.23L819.229,493.031z"/>
		<path style="fill:#FFFFFF;" d="M800.819,438.066l8.382,54.965h10.028l15.542-81.745c-1.507-0.115-3.038-0.23-4.605-0.23h-75.693
			c-1.531,0-3.086,0.115-4.593,0.23l15.535,81.745h10.059l8.34-54.965h0.315l-8.237-15.088h32.845l-8.207,15.088H800.819z"/>
		<path style="fill:#616E7D;" d="M720.145,324.89c0,39.88,32.294,72.192,72.189,72.192c39.859,0,72.171-32.312,72.171-72.192
			c0-39.88-32.312-72.195-72.171-72.195C752.439,252.695,720.145,285.009,720.145,324.89z"/>
		<path style="fill:#616E7D;" d="M287.913,403.878c-37.48,0-67.886,30.397-67.886,67.862v32.929h219.315V471.74
			c0-37.465-30.406-67.862-67.868-67.862H287.913z M356.586,493.031h-10.022h-33.74h-10.017l-15.59-81.745
			c1.538-0.115,3.068-0.23,4.624-0.23h75.711c1.549,0,3.087,0.115,4.593,0.23L356.586,493.031z"/>
		<path style="fill:#FFFFFF;" d="M338.2,438.066l8.364,54.965h10.022l15.56-81.745c-1.507-0.115-3.044-0.23-4.593-0.23h-75.711
			c-1.556,0-3.086,0.115-4.624,0.23l15.59,81.745h10.017l8.364-54.965h0.302l-8.213-15.088h32.833l-8.213,15.088H338.2z"/>
		<polygon style="fill:#AAD4C8;" points="312.824,493.031 346.564,493.031 338.2,438.066 337.897,438.066 346.11,422.978 
			313.277,422.978 321.49,438.066 321.187,438.066 		"/>
		<path style="fill:#616E7D;" d="M257.495,324.89c0,39.88,32.336,72.174,72.207,72.174s72.189-32.294,72.189-72.174
			c0-39.88-32.318-72.195-72.189-72.195S257.495,285.009,257.495,324.89z"/>
	</g>
</g>
</svg>
