<?xml version="1.0" encoding="utf-8"?>
<!-- Generator: Adobe Illustrator 27.5.0, SVG Export Plug-In . SVG Version: 6.00 Build 0)  -->
<svg version="1.1" xmlns="http://www.w3.org/2000/svg" xmlns:xlink="http://www.w3.org/1999/xlink" x="0px" y="0px"
	 viewBox="0 0 1122 1122" style="enable-background:new 0 0 1122 1122;" xml:space="preserve">
<g id="Object">
	<g>
		<polygon style="fill:none;" points="458.051,498.894 477.249,479.698 462,464.449 442.734,483.568 		"/>
		<path style="fill:none;" d="M408.264,533.307c4.14,4.139,10.7,4.264,15.027,0.472l0.015-0.015l-15.451-15.454
			C404.08,522.637,404.143,529.185,408.264,533.307z"/>
		<path style="fill:none;" d="M496.918,429.783l15.121,15.121l3.731-3.728l15.466-15.469l-19.763-19.763
			c-0.157,6.86-3.177,13.015-7.947,17.279L496.918,429.783z"/>
		<polygon style="fill:none;" points="673.971,498.955 689.391,483.534 670.116,464.401 654.822,479.698 670.194,495.069 
			670.14,495.133 		"/>
		<path style="fill:none;" d="M616.044,410.492l-15.199,15.215l5.386,5.398l13.801,13.798l15.152-15.166l-0.802-0.805
			l-15.908-15.781C617.577,412.35,616.821,411.421,616.044,410.492z"/>
		<path style="fill:#82BFAB;" d="M355.977,504.81l104.64,104.655c-0.333-0.817-0.805-1.558-1.101-2.408
			c-2.001-5.68-3.102-11.784-3.102-18.156c0-6.564,1.213-12.843,3.353-18.695l-36.461-36.443l-0.015,0.015
			c-4.327,3.792-10.888,3.668-15.027-0.472c-4.121-4.122-4.184-10.67-0.408-14.997l-33.861-33.861l-3.323,3.289l0.048,0.046
			l-0.266,0.254C365.149,493.354,360.429,499.019,355.977,504.81z"/>
		<path style="fill:#82BFAB;" d="M289.023,697.947L428.305,837.22l19.96-19.953l12.431-12.431
			c8.527-5.916,18.504-8.857,28.463-8.763c0.786,0,1.573,0.063,2.345,0.109c8.497,0.348,17.009-0.094,25.446-1.305
			c18.804-2.675,37.136-9.224,53.797-19.576c-11.959-5.005-23.367-11.723-33.831-20.22l-0.242,0.236l-3.029-3.038
			c-2.581-2.218-5.099-4.515-7.553-6.954c-2.439-2.439-4.729-4.971-6.956-7.538l-63.011-63.02l0.103-0.108L331.43,549.877
			c-6.17,17.261-9.617,35.278-9.962,53.388c-0.127,6.957,0.142,13.926,0.865,20.835c0.678,6.215,1.683,12.4,3.039,18.519
			c-0.363,12.101-5.114,24.093-14.353,33.329L289.023,697.947z"/>
		<polygon style="fill:#82BFAB;" points="442.734,483.568 462,464.449 428.203,430.648 408.927,449.767 		"/>
		<path style="fill:#82BFAB;" d="M791.042,489.877l-0.188,0.157l-0.157,0.188l-16.346,16.35
			c9.689,15.233,16.631,31.676,20.928,48.671l28.711-28.717l1.749-1.588l1.586-1.764c8.013-9.692,7.504-24.06-1.573-33.138
			C816.17,480.466,800.682,480.421,791.042,489.877z"/>
		<path style="fill:#82BFAB;" d="M751.546,477.967c2.191,2.203,4.134,4.545,6.186,6.826l39.622-39.619l0.878-0.802l0.787-0.884
			c4.121-4.53,6.264-10.21,6.385-15.938c0.157-6.5-2.234-13.03-7.172-17.972c-4.944-4.957-11.487-7.332-17.969-7.175
			c-6.106,0.127-12.159,2.518-16.818,7.175l-0.793,0.884l-0.091-0.097l-39.369,39.371l28.148,27.93l-0.06,0.046L751.546,477.967z"/>
		<path style="fill:#82BFAB;" d="M689.391,483.534l-15.42,15.421l23.706,23.715l1.032,1.037c4.327,3.792,10.902,3.668,15.027-0.472
			c4.263-4.249,4.293-11.124,0.124-15.436l-0.281-0.284L689.391,483.534z"/>
		<path style="fill:#82BFAB;" d="M634.351,371.39c5.822-0.03,11.06,2.139,15.215,5.586l39.259-39.275l0.881-0.787l0.787-0.881
			c4.327-4.738,6.469-10.733,6.436-16.728c-0.063-6.246-2.453-12.479-7.223-17.245c-4.766-4.769-10.996-7.16-17.245-7.208
			c-6.2-0.063-12.391,2.237-17.197,6.83l-0.411,0.378l-0.376,0.408l-88.432,88.448l34.8,34.79l15.199-15.215
			c-3.407-4.106-5.532-9.299-5.565-15.058C610.449,382.199,621.118,371.438,634.351,371.39z"/>
		<path style="fill:#82BFAB;" d="M720.895,343.947l-0.741,0.85l-51.161,51.155l34.924,34.666l51.2-51.203l0.648-0.599
			c9.629-9.629,9.629-25.237,0-34.869C746.142,334.318,730.524,334.318,720.895,343.947z"/>
		<path style="fill:#82BFAB;" d="M469.901,389.279l-6.766,6.706l33.783,33.798l6.609-6.561c4.77-4.264,7.789-10.419,7.947-17.279
			l-24.421-24.435c-6.506,0.157-12.37,2.878-16.601,7.22L469.901,389.279z"/>
		<path style="fill:#82BFAB;" d="M512.039,444.904l18.837,18.837c7.441-5.728,15.23-10.779,23.304-15.106l-22.944-22.928
			l-15.466,15.469L512.039,444.904z"/>
		<path style="fill:#82BFAB;" d="M482.411,523.251c4.028-8.306,8.812-16.38,14.319-24.075l-19.481-19.478l-19.197,19.197
			L482.411,523.251z"/>
		<polygon style="fill:#82BFAB;" points="654.822,479.698 670.116,464.401 635.183,429.738 620.031,444.904 		"/>
		<path style="fill:#616E7D;" d="M519.135,737.787c2.227,2.566,4.518,5.099,6.956,7.538c2.454,2.439,4.972,4.736,7.553,6.954
			l3.029,3.038l0.242-0.236c10.464,8.497,21.872,15.215,33.831,20.22c11.063,4.642,22.599,7.835,34.321,9.505
			c8.418,1.21,16.93,1.652,25.427,1.305c0.787-0.046,1.573-0.109,2.345-0.109c9.974-0.094,19.935,2.847,28.463,8.763l12.431,12.431
			l19.968,19.953l139.273-139.273l-22.018-21.999c-9.217-9.236-13.968-21.228-14.319-33.329c1.344-6.119,2.366-12.304,3.02-18.519
			c0.708-6.909,1.011-13.878,0.866-20.835c-0.236-12.776-2.1-25.491-5.247-37.952c-4.297-16.994-11.239-33.438-20.928-48.671
			c-4.848-7.616-10.422-14.87-16.619-21.779c-2.052-2.281-3.994-4.623-6.186-6.826l-0.266-0.254l0.06-0.046l-28.148-27.93
			l-19.275-19.119l-34.924-34.666l-16.876-16.743l-0.551-0.55c-0.614-0.63-1.323-1.132-2-1.683
			c-4.155-3.447-9.393-5.617-15.215-5.586c-13.233,0.048-23.902,10.809-23.873,24.045c0.034,5.759,2.158,10.951,5.565,15.058
			c0.778,0.929,1.534,1.858,2.43,2.66l15.908,15.781l0.802,0.805l34.932,34.663l19.276,19.134l24.187,23.981l0.281,0.284
			c4.17,4.312,4.139,11.187-0.124,15.436c-4.125,4.139-10.7,4.264-15.027,0.472l-1.032-1.037l-23.706-23.715l-3.831-3.822
			l0.055-0.064l-15.372-15.372l-34.79-34.794l-13.801-13.798l-5.386-5.398l-34.8-34.79l-98.536-98.519l-0.36-0.408l-0.394-0.378
			c-4.817-4.593-11.014-6.893-17.224-6.83c-6.24,0.048-12.476,2.439-17.236,7.208c-4.769,4.766-7.16,11-7.223,17.245
			c-0.034,5.995,2.124,11.989,6.418,16.728l0.805,0.881l0.871,0.787l53.887,53.878l24.421,24.435l19.763,19.763l22.944,22.928
			c-8.074,4.327-15.863,9.378-23.304,15.106l-18.837-18.837l-15.121-15.121l-33.783-33.798l-61.289-61.259l-0.741-0.85
			c-9.629-9.629-25.24-9.629-34.869,0c-9.647,9.632-9.629,25.24,0,34.869l0.66,0.599l61.307,61.304L462,464.449l15.249,15.248
			l19.481,19.478c-5.507,7.695-10.291,15.769-14.319,24.075l-24.36-24.357l-15.317-15.326l-33.807-33.801l-49.482-49.473
			l-0.069,0.097l-0.802-0.884c-4.66-4.657-10.734-7.048-16.837-7.175c-6.5-0.157-13.015,2.218-17.971,7.175
			c-4.942,4.942-7.317,11.472-7.175,17.971c0.127,5.728,2.251,11.408,6.388,15.938l0.787,0.884l0.881,0.802l49.349,49.345
			l33.861,33.861l15.451,15.454l36.461,36.443c7.662-20.992,27.764-36.049,51.361-36.049c22.154,0,41.257,13.233,49.881,32.179
			c8.606-18.946,27.709-32.179,49.848-32.179c30.182,0,54.738,24.562,54.738,54.744c0,6.512-1.144,12.761-3.25,18.568
			c-2.739,7.598-7.145,14.443-12.764,20.063v0.015L563,713.57l-1.873,0.772l-1.867-0.772l-83.476-82.926
			c-2.185-1.873-4.249-3.901-6.113-6.073c-3.831-4.454-6.79-9.598-9.053-15.106L355.977,504.81l-24.659-24.659l-0.172-0.188
			l-0.188-0.157c-9.647-9.457-25.131-9.411-34.696,0.157c-9.072,9.078-9.608,23.446-1.592,33.138l1.592,1.764l1.746,1.588
			l33.423,33.423l124.796,124.782l-0.103,0.108L519.135,737.787z"/>
		<path style="fill:#AAD4C8;" d="M561.009,566.336c-8.624-18.946-27.727-32.179-49.881-32.179
			c-23.597,0-43.699,15.058-51.361,36.049c-2.139,5.852-3.353,12.131-3.353,18.695c0,6.373,1.101,12.476,3.102,18.156
			c0.296,0.85,0.768,1.591,1.101,2.408c2.263,5.508,5.223,10.652,9.053,15.106c1.864,2.173,3.928,4.201,6.113,6.073l83.476,82.926
			l1.867,0.772L563,713.57l86.581-86.024v-0.015c5.619-5.62,10.025-12.465,12.764-20.063c2.106-5.807,3.25-12.056,3.25-18.568
			c0-30.181-24.556-54.744-54.738-54.744C588.718,534.157,569.615,547.39,561.009,566.336z"/>
	</g>
</g>
</svg>
