<svg width="340" height="277" viewBox="0 0 340 277" fill="none" xmlns="http://www.w3.org/2000/svg">
<path d="M164.8 268.3C162.7 268 161.3 266.5 158.4 261.2C152.2 250 146.9 242 146 242.5C145.6 242.8 144.9 247.4 144.6 252.7C144.2 258.1 143.6 263.3 143.4 264.3C142.9 266 140.3 266.5 136.5 265.4L134.5 264.9L136.4 244.7C137.4 233.6 138.3 224.5 138.4 224.4C138.4 224.4 140.4 224.5 142.8 224.8L147 225.2L154.6 238.1C158.8 245.2 162.6 251 163 251C163.4 251 164 247.7 164.4 243.8C164.8 239.8 165.4 234.3 165.7 231.6L166.3 226.8L170.2 227.3C172.4 227.6 174.3 228 174.4 228.2C174.6 228.3 173.9 236.6 172.9 246.5C171.9 256.4 171.1 265.5 171.1 266.8C171 269.1 170.5 269.2 164.8 268.3Z" fill="black"/>
<path d="M199.1 255.6C197.9 250.6 196.4 243.6 195.7 240C194.4 233.7 194.3 233.5 191.4 233.6C189.8 233.6 186.8 234 184.8 234.4C181.2 235.2 181.1 235.2 180.4 231.6C180.1 229.5 180 227.7 180.3 227.4C180.9 226.8 213.2 219.8 213.5 220.2C213.6 220.4 214 222.1 214.3 224.1L214.8 227.8L208.9 229C205.6 229.7 202.8 230.6 202.6 230.9C202.4 231.2 203.8 237.6 205.6 245C210.2 263.5 210.2 262.1 205.3 263.5L201.2 264.7L199.1 255.6Z" fill="black"/>
<path d="M229 256.1C229 253.8 225.3 219.8 224.6 215.9C224.2 213.6 224.6 213 228.1 211.5C231.6 209.9 232.2 209.9 233.8 211.2C234.7 212 242.1 218.2 250.3 224.9C258.4 231.7 265 237.5 265 237.9C265 238.4 263.2 239.5 261 240.5C257 242.3 256.9 242.3 254.6 240.1L252.2 237.8L244.8 241.7C237.7 245.4 237.5 245.6 237.2 249.6C236.9 253.2 236.4 254 233 255.9C229 258.1 229 258.1 229 256.1ZM244.8 232.2C245.1 231.2 234.2 221.4 233.5 222.1C233 222.7 234.8 235.9 235.6 237.2C236.2 238.2 244.2 233.9 244.8 232.2Z" fill="black"/>
<path d="M97.2996 252.6C90.2996 249.3 86.4996 243.6 86.5996 236.6C86.6996 232.6 87.8996 229.1 91.7996 221C94.6996 215.2 96.9996 210 96.9996 209.3C96.9996 208.7 97.3996 207.9 97.8996 207.5C98.9996 206.9 106 210 106 211C106 211.4 103.5 217 100.5 223.4C97.4996 229.8 94.9996 236 94.9996 237.1C94.9996 239.6 96.7996 243.1 98.8996 244.7C101.4 246.6 108.4 246.3 110.4 244.2C111.9 242.5 120 226.5 122.1 221.2C122.9 219 123.1 219 126.7 220.5C128.7 221.4 130.6 222.2 130.8 222.4C131.4 223 121.7 243.6 118.6 248.3C116.2 251.8 110.1 255 105.8 255C104 255 100.2 253.9 97.2996 252.6Z" fill="black"/>
<path d="M65.4 232.9C64.4 231.7 59.6 227.4 54.7 223.3L46 215.9L54.2 206.7C68 191.5 73.3 186 74.1 186C74.5 186 76.1 187.1 77.6 188.4L80.4 190.7L69.5 203L58.5 215.3L66 222.1L73.5 228.9L70.4 232L67.4 235.1L65.4 232.9Z" fill="black"/>
<path d="M263.7 213.4C255.6 205.9 249.1 199.4 249.2 198.9C249.4 198.5 252.4 195.1 255.9 191.5C265.1 181.8 271.4 179.8 278.1 184.3C282.3 187.1 284 190.3 284 195.7V199.8L290.9 201.4C294.8 202.3 298.7 203 299.7 203C301.1 203 300.6 203.8 297.8 206.6L294.2 210.3L286.3 208.7C278.8 207.1 278.4 207.2 276.5 209C274.6 211 274.6 211 279.5 216L284.4 221L281.5 224L278.5 227L263.7 213.4ZM273.4 201.4C276.4 197.7 276.7 195.4 274.3 192.8C271.7 189.9 267.8 190.5 264 194.5L260.6 198L264.5 202C268.7 206.3 269.3 206.2 273.4 201.4Z" fill="black"/>
<path d="M33.5999 192.5C26.8999 190.1 21.2999 183.2 19.4999 175.3C18.4999 170.4 21.2999 162.1 25.1999 158.3C28.9999 154.6 36.2999 151.1 40.0999 151C48.1999 151 56.6999 156.2 60.1999 163.5C65.7999 174.8 59.5999 189 47.5999 192.5C41.4999 194.3 38.6999 194.3 33.5999 192.5ZM46.6999 183C50.9999 180.4 53.2999 176.7 53.2999 172.2C53.2999 167.3 51.6999 164.4 47.6999 162C43.8999 159.7 39.8999 159.5 36.1999 161.4C28.6999 165.3 26.0999 172.9 30.1999 179C34.3999 185.1 40.6999 186.7 46.6999 183Z" fill="black"/>
<path d="M304 189C301.7 184.6 306.9 181 310.4 184.6C312.3 186.4 312.3 186.6 311 189.1C309.6 191.6 305.4 191.6 304 189Z" fill="black"/>
<path d="M304 167.9C297.1 164.6 289.3 160.9 286.5 159.8C283.8 158.6 281.3 157.5 281.1 157.3C280.5 156.9 284.2 149 285 149C285.3 149 286 149.4 286.6 149.9C287.1 150.4 290.9 152.2 295 154C299.1 155.7 306.9 159.2 312.2 161.7L321.9 166.3L319.9 170.1C318.8 172.3 317.6 174 317.2 174C316.8 173.9 310.9 171.2 304 167.9Z" fill="black"/>
<path d="M302.5 145.9C296.7 142.9 295.4 141.5 293 135.7C289.3 127.2 291.9 115.4 298.6 110.1C305.1 105 317.3 104.7 324.3 109.6C334.3 116.6 336.1 132.9 327.7 141.8C321.8 148.1 310.3 150 302.5 145.9ZM319.8 137.4C327.2 132.3 326.4 120.3 318.4 116.5C310.7 112.9 302.5 116 300 123.5C298.1 129.1 301.6 136.3 307 138.3C310.2 139.4 317.6 139 319.8 137.4Z" fill="black"/>
<path d="M40.9998 142.3C32.3998 141 6.39981 135.6 5.7998 135.1C5.3998 134.7 4.5998 132.4 4.1998 129.9L3.2998 125.3L16.3998 117.4C35.1998 106.1 40.8998 103 41.3998 103.8C41.5998 104.2 41.9998 106.3 42.0998 108.4C42.4998 112.3 42.3998 112.4 35.9998 116.2C32.3998 118.3 26.3998 121.7 22.4998 123.7C18.6998 125.6 15.2998 127.4 15.0998 127.6C13.9998 128.6 16.7998 129.3 31.0998 131.6C39.4998 132.9 46.5998 134.2 46.7998 134.4C46.9998 134.7 47.3998 136.7 47.6998 138.9C48.2998 143.3 48.0998 143.5 40.9998 142.3Z" fill="black"/>
<path d="M167.6 177.3C170 165.8 172.1 155.3 172.4 153.8C173.1 150.4 172.1 150.3 167.2 153.3C165.2 154.6 160.8 157.2 157.5 159C154.2 160.8 143.7 166.8 134.2 172.2L117 182.1L113.7 180.1C111.9 179 109.6 177.2 108.6 176.1C106.9 174.2 106.9 174.1 109.2 172.7C111.4 171.3 147.1 150.8 161.7 142.6C165.7 140.3 169 138.1 168.9 137.5C168.9 137 166 134.7 162.3 132.5C158.7 130.3 149.6 124.6 142.2 119.8L128.6 111.2L126.2 115.3C124.8 117.6 121.4 124.7 118.5 131C115.6 137.3 110.3 148.3 106.8 155.4L100.3 168.3L96.7 163.5C94.6 160.9 93 158.2 93 157.5C93 156.8 98 146.1 104.1 133.6C110.2 121.1 114.9 110.6 114.7 110.4C114.2 109.9 92.8 115.7 84.2 118.6C77.2 120.9 77 120.8 77 114V108.1L82.7 106.5C85.9 105.6 90.3 104.4 92.5 103.8C94.7 103.1 96.7 102.6 97 102.5C102.1 101.4 108 99.5 108 98.9C108 98.5 105.2 96.5 101.8 94.4C96.9 91.5 82 81.9 80.2 80.5C80.1 80.4 80.9 77.8 82 74.7L84.1 69.1L88.8 71.9C91.4 73.4 99.9 78.8 107.8 83.9C115.7 88.9 122.5 93 122.9 93C123.4 93 125.5 89.1 127.8 84.3C130 79.4 133.4 72.2 135.4 68.3L138.9 61L131.6 55.6C127.6 52.7 120.5 47.7 115.7 44.5C110.9 41.3 107 38.4 107 38.1C107.1 37.5 115.7 30.5 116.4 30.5C116.6 30.5 122.7 34.8 130.1 40C137.4 45.2 143.7 49.6 144 49.8C144.3 49.9 148.3 42.1 153 32.5L161.5 15H168.2H174.9L167.9 29.3C164 37.1 159.4 46.5 157.6 50.2L154.3 56.8L167.7 66.5C175.1 71.9 181.9 76.4 182.8 76.7C186.9 77.7 187.7 75.2 193.2 46.8L198.6 19.1L204.3 21.7C208.5 23.6 209.9 24.7 209.6 25.9C208.9 28 201.3 65.8 200.8 69C200.4 72.3 200.9 72.2 223.5 65.3C233.4 62.3 242.7 59.4 244.3 59C246.9 58.2 247.2 58.4 249.6 63.2C251 66 251.8 68.6 251.3 69.1C250.8 69.6 240.1 72.9 227.5 76.6C214.8 80.2 203 83.6 201.2 84.2C199 84.8 198 85.7 198.2 86.7C198.4 87.5 204.3 92.3 211.4 97.3L224.3 106.4L227.9 104.4C229.9 103.3 237.5 98.9 244.9 94.6C252.2 90.4 258.4 87.1 258.6 87.3C258.8 87.5 259.1 90.5 259.2 94L259.5 100.3L248.3 106.9C242.1 110.5 237.1 114 237.1 114.5C237.1 115.1 240.5 117.9 244.8 120.8C258.2 129.9 258.5 130.3 257.2 133.6C256.6 135.2 255.6 137.7 255.1 139.2L254.1 142L239.3 131.6L224.5 121.2L218 124.7C205.2 131.7 195 138.2 195.5 138.9C195.9 139.6 205.1 145.5 229.7 160.9L238.8 166.6L234.5 171.2L230.2 175.7L221.9 170.3C200 156.1 186.7 148.1 185.9 148.6C185.4 148.9 185 150 185 151.1C185 152.8 180.2 177.7 176.9 193.3L175.8 198H169.6H163.4L167.6 177.3ZM177.5 124.8C177.8 123.5 179.3 116 180.9 108C183.9 93.2 183.8 91 180.1 91C176.5 91 139 102.4 139.3 103.4C139.6 104.4 174.8 126.9 176.2 127C176.6 127 177.2 126 177.5 124.8ZM203.3 118.5C208.1 115.8 212 113.3 212 113C212 112.2 196.3 101 195.2 101C194.5 101 189.9 121.9 190 124.9C190 126 190.4 126 192.3 124.8C193.5 124 198.4 121.2 203.3 118.5ZM154.5 85.5C161.1 83.6 166.6 82 166.7 82C166.9 82 167 81.6 167 81.2C167 80.7 163 77.5 158 74.1L149.1 67.9L144 77.9C138.5 88.9 138.1 90.4 140.8 89.6C141.7 89.3 147.9 87.5 154.5 85.5Z" fill="#03AF42"/>
</svg>
